inDegrees=no
num_controls=7
num_derivatives=13
num_iterations=101
num_multipliers=7
num_parameters=0
num_slacks=7
num_states=26
objective=0.431107
objective_accelerations=0.050137
objective_balance=0.006738
objective_effort=0.031160
objective_height=0.341909
objective_ligament=0.001163
solver_duration=1605.915307
status=Solve_Succeeded
success=true
DataType=double
version=3
OpenSimVersion=4.5
endheader
time	/jointset/ground_pelvis/pelvis_tilt/value	/jointset/ground_pelvis/pelvis_tx/value	/jointset/ground_pelvis/pelvis_ty/value	/jointset/hip_l/hip_flexion_l/value	/jointset/hip_l/hip_adduction_l/value	/jointset/hip_l/hip_rotation_l/value	/jointset/back/lumbar_extension/value	/jointset/patellofemoral_l/patellar_flexion_l/value	/jointset/knee_l/knee_flexion_l/value	/jointset/knee_l/knee_adduction_l/value	/jointset/knee_l/knee_rotation_l/value	/jointset/ankle_l/ankle_angle_l/value	/jointset/subtalar_l/subtalar_angle_l/value	/jointset/ground_pelvis/pelvis_tilt/speed	/jointset/ground_pelvis/pelvis_tx/speed	/jointset/ground_pelvis/pelvis_ty/speed	/jointset/hip_l/hip_flexion_l/speed	/jointset/hip_l/hip_adduction_l/speed	/jointset/hip_l/hip_rotation_l/speed	/jointset/back/lumbar_extension/speed	/jointset/patellofemoral_l/patellar_flexion_l/speed	/jointset/knee_l/knee_flexion_l/speed	/jointset/knee_l/knee_adduction_l/speed	/jointset/knee_l/knee_rotation_l/speed	/jointset/ankle_l/ankle_angle_l/speed	/jointset/subtalar_l/subtalar_angle_l/speed	/forceset/tau_hip_flexion_l	/forceset/tau_hip_adduction_l	/forceset/tau_hip_rotation_l	/forceset/tau_knee_flexion_l	/forceset/tau_ankle_angle_l	/forceset/tau_subtalar_angle_l	/forceset/tau_lumbar_extension	lambda_cid13_p0	lambda_cid13_p1	lambda_cid13_p2	lambda_cid13_p3	lambda_cid13_p4	lambda_cid13_p5	lambda_cid14_p0	/jointset/ground_pelvis/pelvis_tilt/accel	/jointset/ground_pelvis/pelvis_tx/accel	/jointset/ground_pelvis/pelvis_ty/accel	/jointset/hip_l/hip_flexion_l/accel	/jointset/hip_l/hip_adduction_l/accel	/jointset/hip_l/hip_rotation_l/accel	/jointset/back/lumbar_extension/accel	/jointset/patellofemoral_l/patellar_flexion_l/accel	/jointset/knee_l/knee_flexion_l/accel	/jointset/knee_l/knee_adduction_l/accel	/jointset/knee_l/knee_rotation_l/accel	/jointset/ankle_l/ankle_angle_l/accel	/jointset/subtalar_l/subtalar_angle_l/accel	gamma_cid13_p0	gamma_cid13_p1	gamma_cid13_p2	gamma_cid13_p3	gamma_cid13_p4	gamma_cid13_p5	gamma_cid14_p0
0	-0.1562727694958642	0.05712470295025843	0.8978698898433176	0.3774924667018715	-0.2609733665375291	-0.2412304900968852	-0.01265067647494873	0.03223648243721459	0.03223648243721463	-0.1745327142704076	0.1442434469376794	-0.04231377076293093	-0.01146860551467684	0	0	0	0	0	0	0	0	0	0	0	0	0	0.1570913468092431	-0.08002706779058118	-0.05172438518314189	-0.3453557707264901	0.3926502721796677	-0.05544126236255562	-0.09322682473626083	84.32921513439447	5.260438110896455	3.38758747758581	-37.43737001869327	-590.9623712287015	-66.51535249031939	-38.16143354682698	-2.856588625213254	-1.246274844007994	-0.9545302888587528	10.79362357623912	-1.333876639123649	3.46944290366133	-5.538284273354137	10.78179505521643	10.78179505521679	0.03225682658503038	0.3072591657979326	3.099594763939263	-0.6439330517705827	-7.600186448980598e-08	1.011579664768428e-07	1.573750479021447e-07	4.09257796322715e-08	-2.921217044302723e-08	-1.160830594530169e-07	-2.305407861711198e-08
0.01	-0.1564086377239567	0.05706128744844888	0.8978231997882823	0.3780192424475139	-0.2610395408186238	-0.241058527891887	-0.0129277604137462	0.03276362752770472	0.03276362752768608	-0.1745327312959762	0.1442562113623903	-0.04216530843606366	-0.01150177708296912	-0.02692296725454547	-0.01282550833729872	-0.009317841842905319	0.1050092869441017	-0.01314862313755635	0.03415322432249	-0.05498196971634793	0.1049761770102247	0.1049761770102278	2.576179557093404e-05	0.002618343911659386	0.02931136127828559	-0.006637895996975711	0.1417711057941062	-0.08940613566245702	-0.04764458542708457	-0.3191059520997551	0.3489153045723909	-0.03217156961368113	-0.08251201034762691	71.05725127777147	-2.364482710891089	4.423551558247745	-27.43986457492154	-591.3857168908118	-80.42408501010276	-38.17684864197516	-2.57255824441236	-1.322041839916204	-0.9173915997449087	10.30269165382463	-1.292463767076376	3.35236072979002	-5.412930614217644	10.28760747207022	10.28760747207044	-0.007848079313011277	0.2489243451481562	2.789734706822537	-0.674288345432043	-8.3748571899382e-08	1.029838603499296e-07	1.69986630523978e-07	4.789926111082071e-08	-1.339852039315766e-07	-7.584906289880869e-08	-2.712756177685215e-08
0.02	-0.1568062171183623	0.05686534626100134	0.89768393522127	0.3795857331426483	-0.2612346230542949	-0.2405522137370074	-0.01374161950839994	0.03432695007789278	0.03432695007789276	-0.174531607491639	0.1442971196945218	-0.04173516691700326	-0.01160144170558537	-0.05234223326256272	-0.02650513712760024	-0.01851490239539047	0.2079429899013709	-0.02578159091529654	0.06687038997486268	-0.1073550311703957	0.207235491946237	0.207235491946239	0.0002281661769015537	0.005628781475243877	0.05633583843854348	-0.01329861086478774	0.1264508647788052	-0.09878520353434023	-0.04356478567082884	-0.2928561334731411	0.3051803369650818	-0.008901876864823743	-0.07179719595910389	57.87202518556851	-10.00771818015982	5.466013749112592	-17.67077853374662	-590.5351563095899	-94.22216861272518	-38.22270305196824	-2.555848375907539	-1.417098934608616	-0.9303740307746943	10.37850677887268	-1.230745567160099	3.182231169637861	-5.016502620894094	10.23842264037395	10.23842264037346	0.06758534373759005	0.385677896182922	2.642217940333731	-0.6484968259375339	-9.149527930895803e-08	1.048097542230163e-07	1.825982131458113e-07	5.487274258936993e-08	-2.38758237420126e-07	-3.561506634460052e-08	-3.120104493659233e-08
0.03	-0.1574518230737568	0.05653074272085563	0.8974532075894026	0.3821699206729942	-0.2615533443823306	-0.2397247415891223	-0.01506697340793387	0.03689950389921903	0.03689950389922891	-0.1745276146642426	0.1443691886330838	-0.04104299265112925	-0.01176703279252444	-0.0766341470604478	-0.04031575297915311	-0.02761460357478366	0.3083669275374363	-0.03787591741712223	0.09850545353957409	-0.1573915698870909	0.3068107882683764	0.306810788268377	0.0005719870643027862	0.008745697732483073	0.08202681673446939	-0.01975668563484057	0.1219795516386828	-0.09249046027518591	-0.04300230643503774	-0.2893731826615716	0.3021157142442168	-0.01269085216560866	-0.0680072383902756	56.74788494118807	-8.321379558975774	5.375400973726265	-17.48292488979485	-590.7327998695338	-90.11188095627746	-38.29760610587586	-2.344148758717466	-1.348059219354581	-0.8974132760090495	9.795186519257035	-1.185790526735578	3.136330012415534	-4.94860266965926	9.747416776970889	9.747416776970976	0.01805481161077282	0.2687777394725559	2.521702185267535	-0.6350610749801748	-1.206921932136829e-07	1.216849532079591e-07	2.271653890584053e-07	8.083071245711464e-08	-3.638950608506156e-07	-3.964200952815712e-08	-3.902449289776944e-08
0.04	-0.1583360053425299	0.05606102976040918	0.8971319539228439	0.3857425174323608	-0.2619904118423926	-0.2385844815930867	-0.01688296732915442	0.04045387741354973	0.04045387741355001	-0.1745201287578661	0.1444712425839911	-0.04009607572008697	-0.01199532428165229	-0.100057495937872	-0.05352702118774823	-0.03662010933368431	0.405624835704843	-0.04945081732062031	0.1294279596053971	-0.2054830355078664	0.4035994305439941	0.4035994305439954	0.0009267819664785851	0.01162578394884989	0.1072843714722152	-0.02583869130253447	0.1175082384986128	-0.08619571701602817	-0.04243982719935548	-0.2858902318499564	0.2990510915233629	-0.0164798274663863	-0.0642172808214127	55.70457642396503	-6.648223353057149	5.28578504640261	-17.50547572941431	-589.7607096502809	-85.88984940283451	-38.3995708488135	-2.38213539181536	-1.29722940601707	-0.9115349466761882	9.745300885140937	-1.126860247494605	3.039719669860187	-4.627488001710155	9.68109183106961	9.681091831069526	0.06978014669244255	0.3383118880084499	2.555533228697694	-0.5732830054657794	-1.503313794172769e-07	1.388704471436619e-07	2.723914431831799e-07	1.07180115075152e-07	-4.894517562386711e-07	-4.458154940733774e-08	-4.692525972083186e-08
0.05	-0.159450462887349	0.05546186201079369	0.8967208421824044	0.3902731411897513	-0.2625404173163015	-0.2371389024245336	-0.0191695167812947	0.04496283248176702	0.04496283248176376	-0.1745088481147883	0.1446014315901111	-0.03889897328390923	-0.01228243443969912	-0.1226893835898172	-0.06623801500121552	-0.04560627167324709	0.5000246503998423	-0.06044348908831725	0.1595395782100892	-0.2514777704693062	0.4977359808052825	0.4977359808052317	0.001340667517235333	0.01440183940418785	0.1320228815327691	-0.03151352316937488	0.1110901854946598	-0.083693207871662	-0.04134835110725958	-0.279610916363357	0.2899771054668331	-0.01457793010047779	-0.0591436240469159	52.91839905088332	-7.050938697480917	5.42373139587021	-16.09623480514323	-589.0092894743308	-85.68709171165757	-38.52614750761636	-2.182028761162187	-1.247735659954573	-0.8928607204044758	9.216014117336504	-1.069487068369663	2.974598429668965	-4.533103575702383	9.211605728497231	9.211605728489722	0.02894070896190037	0.2456871369563068	2.416014635453748	-0.5541621804094292	-1.669584962921424e-07	1.477143848297006e-07	2.968872709081576e-07	1.238282356569022e-07	-5.694744764011155e-07	-4.221361875076063e-08	-5.097097689563566e-08
0.06	-0.1607869019705442	0.05473764406485494	0.8962197280500075	0.3957335015652204	-0.2631971527932798	-0.235396663975154	-0.02190554104951878	0.05039948687356017	0.05039948687355966	-0.1744930790262638	0.1447590681033243	-0.03745788479898206	-0.01262420869703764	-0.1444538036128825	-0.07853706045240301	-0.05462058772515463	0.5915721593211256	-0.07079681793451179	0.1887598157705901	-0.2953779987244045	0.5891392952601217	0.5891392952600287	0.001824471055776239	0.01711528536591916	0.156081581222103	-0.03677151116086568	0.104672132490686	-0.08119069872729319	-0.04025687501512983	-0.2733316008767706	0.280903119410302	-0.01267603273456745	-0.05406996727243698	50.20389828742059	-7.465765056278532	5.563109963449671	-14.87981338299122	-587.2143305269745	-85.38587618932024	-38.67478588699993	-2.208641866039358	-1.214839733561113	-0.9171656891451411	9.174839730397695	-0.9989916631941329	2.861443461021946	-4.208586660441831	9.134444669779786	9.134444669781651	0.08376374424925066	0.3257899892871221	2.419571154453692	-0.48991423039587	-1.830377365636931e-07	1.562070990947009e-07	3.20510246995249e-07	1.400678812055455e-07	-6.475799765540603e-07	-3.953800512425686e-08	-5.485437619051278e-08
